<?xml version="1.0" encoding="UTF-8"?>
<svg width="56px" height="56px" viewBox="0 0 56 56" version="1.1" xmlns="http://www.w3.org/2000/svg" xmlns:xlink="http://www.w3.org/1999/xlink">
    <title>Untitled</title>
    <g id="Page-1" stroke="none" stroke-width="1" fill="none" fill-rule="evenodd">
        <g id="icon" fill-rule="nonzero">
            <path d="M56,51.8631109 C56,54.1475001 54.147347,56 51.8631351,56 L4.13670088,56 C1.85248906,56 0,54.1473361 0,51.8631109 L0,4.13688908 C0,1.85151611 1.85248906,0 4.13670088,0 L51.8629712,0 C54.147347,0 56,1.85151611 56,4.13688908 L56,51.8631109 L56,51.8631109 Z" id="Shape" fill="#1F4B7F"></path>
            <g id="sentry-glyph-light-400x367" transform="translate(8.000000, 10.000000)" fill="#FFFFFF">
                <path d="M23.7620157,1.84727861 C23.0683949,0.700908894 21.8225745,0 20.478597,0 C19.1346195,0 17.8887991,0.700908894 17.1951783,1.84727861 L11.7939546,11.0598268 C20.1902824,15.2343163 25.7353613,23.5282221 26.364125,32.8527757 L22.5717764,32.8527757 C21.9442111,24.8603792 17.1166744,17.7953493 9.88136318,14.2805402 L4.88235823,22.8881828 C8.94468984,24.702499 11.7999662,28.4515954 12.4588469,32.8364269 L3.74957878,32.8364269 C3.53974908,32.8216463 3.35152824,32.7025565 3.24895015,32.5196726 C3.14637207,32.3367887 3.14325105,32.1147399 3.24064888,31.9290686 L5.65396162,27.8418689 C4.83633805,27.1625321 3.90189186,26.6363232 2.89588992,26.288733 L0.507202821,30.3759327 C0.00489494011,31.2339323 -0.131113795,32.2566304 0.129600117,33.2152618 C0.390314029,34.1738933 1.02599439,34.9884617 1.89444722,35.4767579 C2.46091635,35.7945988 3.09939332,35.9634008 3.74957878,35.9672219 L15.6765972,35.9672219 C16.1271376,30.430814 13.6360774,25.063205 9.10975979,21.8173365 L11.0059341,18.5475767 C16.7201224,22.4558935 19.9352469,29.0800962 19.4607372,35.9672219 L29.5654582,35.9672219 C30.0443353,25.5317989 24.9134703,15.6303509 16.0952331,9.97263166 L19.9286244,3.4331121 C20.1064173,3.13646139 20.491084,3.03795858 20.7905218,3.21240331 C21.2255748,3.4494609 37.4456631,31.6347902 37.7493793,31.9617662 C37.858291,32.1562425 37.8543545,32.3938927 37.7390612,32.5846861 C37.6237678,32.7754795 37.4147526,32.8902328 37.1911981,32.8854733 L33.2839299,32.8854733 C33.3331812,33.9263468 33.3331812,34.9644956 33.2839299,36 L37.2076152,36 C38.2139893,36.0064795 39.1811717,35.6118235 39.8935714,34.9039229 C40.6059712,34.1960224 41.0043706,33.2337208 41,32.2315214 C41.0004524,31.576161 40.8247244,30.9326234 40.4910339,30.3677583 L23.7620157,1.84727861 Z" id="Path"></path>
            </g>
        </g>
    </g>
</svg>